<?xml version="1.0" encoding="UTF-8" standalone="no"?>
<!-- Created with Inkscape (http://www.inkscape.org/) -->

<svg
   width="52.916664mm"
   height="52.916676mm"
   viewBox="0 0 52.916664 52.916676"
   version="1.1"
   id="svg1"
   xml:space="preserve"
   xmlns="http://www.w3.org/2000/svg"
   xmlns:svg="http://www.w3.org/2000/svg"><defs
     id="defs1" /><g
     id="layer1"
     transform="translate(-12.750962,-89.856733)"><g
       id="g6"><rect
         style="fill:#2ecc71;fill-opacity:1;stroke:#009933;stroke-width:0.275637;stroke-linecap:square;stroke-miterlimit:3.2;paint-order:stroke fill markers"
         id="rect1"
         width="52.641029"
         height="52.641029"
         x="12.888781"
         y="89.994553" /><path
         style="fill:#ffffff;stroke-width:0.653024"
         d="m 42.089505,122.70983 0.04513,-7.04074 h 2.071415 2.07141 v -2.33252 -2.33251 h -2.07335 -2.073348 v -1.14035 c 0,-1.06649 0.03808,-1.17838 0.587446,-1.72779 0.577005,-0.577 0.613874,-0.58745 2.073349,-0.58745 h 1.485902 v -2.33252 -2.33251 h -2.992858 c -2.283969,0 -3.184069,0.0652 -3.800137,0.27507 -1.101814,0.37542 -2.413287,1.59801 -3.003515,2.79994 -0.429846,0.87533 -0.490694,1.21187 -0.545236,3.01545 l -0.06138,2.03016 h -1.882372 -1.882372 v 2.33251 2.33252 h 1.900571 1.900573 v 6.96875 c 0,3.83281 0.05361,7.02236 0.119124,7.08789 0.06551,0.0654 1.445591,0.0979 3.066826,0.072 l 2.947707,-0.0472 z"
         id="path1" /></g></g></svg>
