<?xml version="1.0" encoding="UTF-8" standalone="no"?>
<!-- Created with Inkscape (http://www.inkscape.org/) -->

<svg
   width="52.916664mm"
   height="52.916676mm"
   viewBox="0 0 52.916664 52.916676"
   version="1.1"
   id="svg1"
   xml:space="preserve"
   xmlns="http://www.w3.org/2000/svg"
   xmlns:svg="http://www.w3.org/2000/svg"><defs
     id="defs1" /><g
     id="layer1"
     transform="translate(-73.614545,-89.856733)"><g
       id="g7"><rect
         style="fill:#2ecc71;fill-opacity:1;stroke:#009933;stroke-width:0.275637;stroke-linecap:square;stroke-miterlimit:3.2;paint-order:stroke fill markers"
         id="rect2"
         width="52.641029"
         height="52.641029"
         x="73.752365"
         y="89.994553" /><path
         style="fill:#ffffff;stroke-width:0.966766"
         d="m 94.029471,129.62012 c -2.56746,-0.24846 -4.089742,-0.94813 -5.466904,-2.51266 -1.724064,-1.95864 -1.900748,-2.9633 -1.900748,-10.80802 0,-8.26121 0.156676,-9.0304 2.269832,-11.14356 2.113158,-2.11316 2.882348,-2.26983 11.143559,-2.26983 8.26121,0 9.03042,0.15667 11.14356,2.26983 2.10882,2.10882 2.26517,2.87797 2.26517,11.14356 0,8.26214 -0.15693,9.03533 -2.26093,11.13933 -1.94835,1.94834 -2.82485,2.15636 -9.61306,2.28141 -3.024716,0.0557 -6.435933,0.0107 -7.580479,-0.10006 z m 13.585789,-2.607 c 1.30389,-0.36198 2.81164,-1.86975 3.17364,-3.17363 0.37869,-1.36408 0.37869,-13.71601 0,-15.08009 -0.3677,-1.32444 -1.87747,-2.82124 -3.2067,-3.17917 -1.42293,-0.38316 -13.56599,-0.3899 -14.983067,-0.009 -1.361022,0.36648 -2.865691,1.84788 -3.2376,3.18749 -0.371377,1.3377 -0.379105,13.71461 -0.0094,15.04606 0.357921,1.289 1.643321,2.65679 2.921469,3.10873 1.296054,0.45827 13.757838,0.53864 15.341648,0.0989 z m -9.493081,-4.07061 c -2.522731,-0.77928 -4.602614,-3.30991 -4.870668,-5.9262 -0.382998,-3.7382 2.387816,-7.15953 6.106835,-7.54056 3.738204,-0.38301 7.159524,2.38781 7.540564,6.10683 0.39918,3.89612 -2.48998,7.29738 -6.3859,7.51778 -0.873868,0.0494 -1.949744,-0.0216 -2.390831,-0.15785 z m 3.406521,-2.37804 c 1.1684,-0.431 2.0934,-1.32138 2.65278,-2.55348 0.57161,-1.25906 0.60036,-1.69413 0.20012,-3.02996 -0.51459,-1.71757 -2.49096,-3.21186 -4.32011,-3.26635 -0.359263,-0.0107 -1.244459,0.27517 -1.967106,0.63528 -1.072048,0.53423 -1.434427,0.89661 -1.968651,1.96866 -0.360111,0.72265 -0.654746,1.61401 -0.654746,1.98082 0,0.36681 0.294635,1.25818 0.654746,1.98083 0.534224,1.07205 0.896603,1.43443 1.968651,1.96866 1.425798,0.7105 2.176626,0.77948 3.434316,0.31554 z m 4.68547,-10.40399 c -1.00738,-1.0074 -0.34728,-2.55791 1.08899,-2.55791 0.86434,0 1.46893,0.62289 1.46893,1.51337 0,1.39546 -1.56707,2.03539 -2.55792,1.04454 z"
         id="path3" /></g></g></svg>
