<?xml version="1.0" encoding="UTF-8" standalone="no"?>
<!-- Created with Inkscape (http://www.inkscape.org/) -->

<svg
   width="52.916664mm"
   height="52.916676mm"
   viewBox="0 0 52.916664 52.916676"
   version="1.1"
   id="svg1"
   xml:space="preserve"
   xmlns="http://www.w3.org/2000/svg"
   xmlns:svg="http://www.w3.org/2000/svg"><defs
     id="defs1" /><g
     id="layer1"
     transform="translate(-132.87176,-89.856733)"><g
       id="g8"><rect
         style="fill:#2ecc71;fill-opacity:1;stroke:#009933;stroke-width:0.275637;stroke-linecap:square;stroke-miterlimit:3.2;paint-order:stroke fill markers"
         id="rect4"
         width="52.641029"
         height="52.641029"
         x="133.00958"
         y="89.994553" /><rect
         style="fill:#ffffff;fill-opacity:1;stroke:none;stroke-width:0.141163;stroke-linecap:square;stroke-miterlimit:3.2;paint-order:stroke fill markers"
         id="rect6"
         width="26.959127"
         height="26.959127"
         x="145.85052"
         y="102.8355"
         ry="2.4926152" /><path
         style="fill:#2ecc71;fill-opacity:1;stroke-width:0.101263"
         d="m 154.25773,119.34686 -0.006,-6.102 -1.89558,-0.007 -1.89558,-0.007 v 6.10888 6.10889 h 1.90234 1.90232 z m 6.17583,2.70606 c 0.009,-3.07317 0.014,-3.4227 0.0562,-3.67728 0.16803,-1.01376 0.49272,-1.5619 1.10175,-1.86005 0.25158,-0.12316 0.44437,-0.17061 0.84459,-0.20789 0.8259,-0.0769 1.43663,0.16451 1.79039,0.70775 0.19704,0.30259 0.32696,0.73132 0.39318,1.29742 0.0337,0.28839 0.0402,0.89077 0.0402,3.73988 v 3.39612 h 1.91567 1.91567 l -7e-5,-3.70407 c -4e-5,-2.24605 -0.0108,-3.84644 -0.0272,-4.06577 -0.0913,-1.21651 -0.28854,-2.05801 -0.65027,-2.77479 -0.1959,-0.38818 -0.6145,-0.89024 -0.96914,-1.16233 -0.49682,-0.38118 -1.23329,-0.65809 -2.02389,-0.76101 -0.40592,-0.0529 -1.26497,-0.0547 -1.58076,-0.004 -0.69388,0.11255 -1.28893,0.34699 -1.81395,0.71464 -0.37666,0.26379 -0.85001,0.76029 -1.02288,1.07294 -0.12924,0.23374 -0.13572,0.20225 -0.14346,-0.69621 l -0.007,-0.82388 h -1.80849 -1.8085 l -0.006,6.10201 -0.006,6.10199 h 1.90101 1.901 z m -7.52222,-10.52265 c 0.21372,-0.0555 0.57311,-0.22874 0.77888,-0.37557 0.41054,-0.29296 0.76973,-0.85805 0.85723,-1.34863 0.15937,-0.89358 -0.21271,-1.77594 -0.95776,-2.27125 -0.40128,-0.26677 -0.81289,-0.37479 -1.33476,-0.35029 -0.50479,0.0237 -0.81759,0.13175 -1.19227,0.41182 -0.4711,0.35211 -0.74398,0.7801 -0.8587,1.34674 -0.0593,0.29301 -0.0415,0.75397 0.0412,1.05988 0.21422,0.79382 0.94122,1.43433 1.78147,1.56956 0.19194,0.0309 0.69558,0.007 0.88479,-0.0422 z"
         id="path4" /></g></g></svg>
