<?xml version="1.0" encoding="UTF-8" standalone="no"?>
<!-- Created with Inkscape (http://www.inkscape.org/) -->

<svg
   width="52.916664mm"
   height="52.916676mm"
   viewBox="0 0 52.916664 52.916676"
   version="1.1"
   id="svg1"
   xml:space="preserve"
   xmlns="http://www.w3.org/2000/svg"
   xmlns:svg="http://www.w3.org/2000/svg"><defs
     id="defs1" /><g
     id="layer1"
     transform="translate(-194.27078,-89.856733)"><g
       id="g9"><rect
         style="fill:#2ecc71;fill-opacity:1;stroke:#009933;stroke-width:0.275637;stroke-linecap:square;stroke-miterlimit:3.2;paint-order:stroke fill markers"
         id="rect5"
         width="52.641029"
         height="52.641029"
         x="194.40862"
         y="89.994553" /><path
         style="fill:#ffffff;stroke-width:0.200536"
         d="m 216.77834,128.07907 c -2.44202,-0.0997 -6.30775,-0.4038 -8.38322,-0.65955 -1.01837,-0.12549 -1.75152,-0.44416 -2.45981,-1.06918 -0.55536,-0.49004 -1.05537,-1.31512 -1.24755,-2.05861 -0.4443,-1.71873 -0.60127,-3.70475 -0.61227,-7.74652 -0.0114,-4.16459 0.13116,-6.14419 0.58122,-8.07438 0.39855,-1.7093 1.78519,-3.00574 3.47311,-3.24719 1.32828,-0.19 5.02708,-0.49898 7.82611,-0.65376 1.65106,-0.0913 7.86536,-0.0918 9.55051,-7.9e-4 3.18999,0.17233 7.45872,0.55 8.20215,0.72568 1.30927,0.30937 2.46677,1.32788 2.9273,2.57579 0.25011,0.67773 0.51558,2.23021 0.65318,3.81973 0.0316,0.36478 0.0702,2.00624 0.0858,3.64767 0.0389,4.07794 -0.0517,5.95424 -0.38062,7.87912 -0.24586,1.43889 -0.60282,2.25552 -1.29005,2.95128 -0.42124,0.42645 -0.73197,0.6456 -1.24823,0.88031 -0.62927,0.28611 -0.86502,0.32661 -3.405,0.585 -1.69652,0.17258 -4.66181,0.37123 -6.73841,0.45142 -1.58619,0.0613 -5.9713,0.0577 -7.5343,-0.006 z m 1.46445,-6.63443 c 0.15351,-0.0524 1.33309,-0.67305 2.72716,-1.43505 0.20428,-0.11166 0.5863,-0.31303 0.84893,-0.44749 0.26264,-0.13448 0.53723,-0.28534 0.61018,-0.33528 0.073,-0.05 0.47885,-0.27176 0.90198,-0.49295 2.491,-1.30212 3.38739,-1.82128 3.5406,-2.0506 0.15672,-0.2346 0.15632,-0.52013 -8.3e-4,-0.75366 -0.14462,-0.21459 -0.39201,-0.36772 -1.89472,-1.17272 -1.33934,-0.71748 -3.34015,-1.79721 -4.7222,-2.54829 -0.53987,-0.2934 -1.13678,-0.61657 -1.32646,-0.71815 -0.18968,-0.10159 -0.36876,-0.20295 -0.39793,-0.22526 -0.0292,-0.0223 -0.18633,-0.0701 -0.3492,-0.10595 -0.26756,-0.0591 -0.31972,-0.055 -0.5405,0.0427 -0.18381,0.0813 -0.27474,0.16506 -0.36709,0.33805 l -0.12273,0.22997 -0.0155,4.40385 c -0.0108,3.07635 0.003,4.47468 0.043,4.63885 0.13795,0.55498 0.55907,0.80475 1.06556,0.632 z"
         id="path5" /></g></g></svg>
